<?xml version="1.0" encoding="UTF-8" standalone="no"?>
<!-- Created with Inkscape (http://www.inkscape.org/) -->

<svg
   width="512"
   height="512"
   viewBox="0 0 135.46666 135.46667"
   version="1.1"
   id="svg1"
   xml:space="preserve"
   inkscape:version="1.3.2 (091e20ef0f, 2023-11-25, custom)"
   sodipodi:docname="storage-icon.svg"
   xmlns:inkscape="http://www.inkscape.org/namespaces/inkscape"
   xmlns:sodipodi="http://sodipodi.sourceforge.net/DTD/sodipodi-0.dtd"
   xmlns="http://www.w3.org/2000/svg"
   xmlns:svg="http://www.w3.org/2000/svg"><sodipodi:namedview
     id="namedview1"
     pagecolor="#ffffff"
     bordercolor="#000000"
     borderopacity="0.25"
     inkscape:showpageshadow="2"
     inkscape:pageopacity="0.0"
     inkscape:pagecheckerboard="0"
     inkscape:deskcolor="#d1d1d1"
     inkscape:document-units="mm"
     inkscape:zoom="0.50646226"
     inkscape:cx="552.85462"
     inkscape:cy="564.70151"
     inkscape:window-width="1920"
     inkscape:window-height="1008"
     inkscape:window-x="0"
     inkscape:window-y="0"
     inkscape:window-maximized="1"
     inkscape:current-layer="layer1" /><defs
     id="defs1" /><g
     inkscape:label="Layer 1"
     inkscape:groupmode="layer"
     id="layer1"
     transform="translate(53.63209,-7.2474703)"><g
       id="g11"
       transform="matrix(0.39612755,0,0,0.39612755,-27.492149,16.155863)"><path
         style="fill:#4185f3"
         d="m 35.75013,289.48444 c -3.89136,-0.56075 -8.46158,-2.33846 -12.00366,-4.66915 -1.96535,-1.2932 -6.03132,-5.34656 -7.36352,-7.34068 -1.82219,-2.72759 -66.52918,-114.97158 -67.61432,-117.2872 -0.56588,-1.20756 -1.33754,-3.35116 -1.71479,-4.76355 -0.60671,-2.27142 -0.68593,-3.0722 -0.68593,-6.93363 0,-3.86142 0.0792,-4.6622 0.68593,-6.93362 0.37725,-1.41239 1.15206,-3.5627 1.72178,-4.77846 1.08902,-2.32391 65.77605,-114.530276 67.60754,-117.272295 1.32876,-1.989363 5.39626,-6.046385 7.35233,-7.333391 3.00694,-1.978434 6.36086,-3.4417131 10.03027,-4.3760961 1.57383,-0.400764 7.49059,-0.445383 69.7177,-0.525744 47.60132,-0.06147 68.65512,-0.0022 70.18888,0.197667 4.29396,0.559502 8.53493,2.1323071 12.22883,4.5351901 2.12799,1.384255 6.16791,5.378144 7.58884,7.502374 0.58405,0.873125 14.66949,25.161875 31.30098,53.975 16.63149,28.813125 31.37257,54.345795 32.75796,56.739265 1.38539,2.39347 2.98458,5.34553 3.55376,6.56013 3.38373,7.2207 3.37168,16.22499 -0.0314,23.48705 -0.54882,1.17116 -5.70465,10.2816 -11.45739,20.24543 -5.75275,9.96383 -20.49269,35.49917 -32.75543,56.74521 -12.26274,21.24604 -22.72397,39.28401 -23.24717,40.08438 -1.27429,1.94935 -5.60845,6.26758 -7.57781,7.54997 -3.59382,2.34018 -7.22149,3.77319 -11.3456,4.48174 -2.06792,0.35528 -10.44597,0.39983 -69.85,0.37144 -37.12513,-0.0177 -68.21461,-0.13521 -69.08774,-0.26103 z"
         id="path10"
         sodipodi:nodetypes="sssssssssssssssssssssssssss" /><path
         style="fill:#ffffff"
         d="m 101.64368,222.72866 c -1.69883,-0.23383 -4.39542,-0.79246 -24.9536,-5.16939 -5.09323,-1.08437 -12.59417,-2.68045 -16.66875,-3.54685 -4.07458,-0.86639 -11.63505,-2.47668 -16.80104,-3.57841 -5.16599,-1.10174 -11.65305,-2.47905 -14.41569,-3.06071 -2.76263,-0.58165 -5.38201,-1.26665 -5.82083,-1.52222 -0.47573,-0.27707 -0.91689,-0.83309 -1.09268,-1.37719 -0.18013,-0.55756 -0.41636,-5.95553 -0.60727,-13.87709 -0.17186,-7.13052 -0.4241,-17.01271 -0.56054,-21.96042 -0.40788,-14.79102 -0.39405,-16.68499 0.12759,-17.48112 0.24759,-0.37787 0.82785,-0.83963 1.28948,-1.02614 0.46162,-0.18651 5.24462,-0.71999 10.6289,-1.1855 5.38427,-0.46552 12.94474,-1.13367 16.80104,-1.48479 3.8563,-0.35111 9.80942,-0.88242 13.22916,-1.18068 11.35967,-0.99077 21.01303,-1.84267 22.75417,-2.00803 2.04265,-0.19399 3.03215,-0.65074 3.53891,-1.63353 0.36282,-0.70364 1.69059,-3.92149 7.31533,-17.72881 1.64815,-4.04579 2.98289,-6.94574 3.37934,-7.34219 0.96833,-0.96833 2.66358,-0.91651 3.82006,0.11678 l 0.86407,0.77203 0.0684,44.7363 c 0.0376,24.60497 0.16926,44.73631 0.2925,44.73631 0.12325,0 5.80746,-1.07366 12.63158,-2.3859 6.82413,-1.31225 13.59813,-2.6145 15.05333,-2.8939 1.45521,-0.2794 5.44381,-1.0492 8.86355,-1.71066 3.41973,-0.66147 12.07666,-2.32574 19.2376,-3.69838 7.16095,-1.37265 13.14507,-2.57308 13.29806,-2.66763 0.19097,-0.11802 0.27547,-7.02767 0.26958,-22.0441 -0.008,-20.92423 0.0128,-21.90108 0.48407,-22.53842 1.00596,-1.36039 1.55009,-1.43515 5.82403,-0.80017 5.72308,0.85028 6.22231,0.98309 7.08673,1.88535 l 0.76347,0.79689 v 25.97794 25.97793 l -0.59484,0.83392 c -0.5358,0.75116 -0.89026,0.90183 -3.57187,1.51821 -3.09906,0.71233 -14.7188,3.26121 -18.85204,4.13534 -1.30969,0.27698 -3.9886,0.85582 -5.95313,1.28631 -4.41944,0.96842 -22.37707,4.87952 -26.32604,5.73369 -1.60073,0.34624 -4.04151,0.87707 -5.42396,1.17961 -1.38245,0.30255 -3.5851,0.77831 -4.89479,1.05725 -1.30969,0.27894 -4.04812,0.87527 -6.08542,1.32517 -8.76423,1.93546 -11.67281,2.29096 -14.99848,1.8332 z M 206.6005,138.42641 c -0.58209,-0.0499 -4.74928,-0.38725 -9.26042,-0.74956 -4.51115,-0.3623 -10.34521,-0.83683 -12.96458,-1.0545 -2.61938,-0.21766 -9.22735,-0.75556 -14.68438,-1.19531 -11.60417,-0.93512 -23.90935,-1.94217 -32.25642,-2.63986 -5.87049,-0.49068 -5.93774,-0.50321 -6.66004,-1.24095 -0.46503,-0.47497 -2.85905,-5.49529 -6.60084,-13.84214 -3.22914,-7.20328 -7.21413,-16.07343 -8.85553,-19.711453 -3.15671,-6.99655 -8.67163,-19.22219 -9.95492,-22.06832 -0.42043,-0.93247 -0.70505,-1.75479 -0.63248,-1.82736 0.11685,-0.11685 12.3959,2.06118 31.88731,5.65609 3.56526,0.65756 8.11941,1.48836 10.12032,1.84622 4.71872,0.84394 10.68919,1.92631 13.03073,2.3623 1.01864,0.18967 3.57848,0.6547 5.68854,1.03339 21.88825,3.92831 23.87881,4.34171 24.61904,5.11285 0.39126,0.40759 1.43109,2.34842 2.31073,4.31295 1.66143,3.71055 7.23524,16.102093 14.24252,31.663613 2.2393,4.97296 4.07101,9.25921 4.07047,9.525 -0.002,0.85115 -1.0405,2.22302 -1.98068,2.61585 -0.50147,0.20953 -0.94534,0.36094 -0.9864,0.33648 -0.041,-0.0245 -0.55089,-0.0853 -1.13297,-0.13529 z M 0.67972994,137.92866 c -0.69868,-0.48938 -1.38028,-1.72034 -1.38028,-2.49278 0,-0.3029 0.63919,-1.94593 1.42043,-3.65116 2.24876996,-4.9085 9.33525006,-20.26143 10.89569006,-23.60563 0.78087,-1.67349 2.95379,-6.37177 4.82872,-10.440623 2.29089,-4.97156 3.62445,-7.55881 4.06601,-7.88848 0.5889,-0.43967 6.76147,-1.69214 22.4454,-4.55437 1.09141,-0.19917 3.59172,-0.66241 5.55625,-1.0294 1.96454,-0.367 11.31094,-2.10763 20.7698,-3.86808 9.45885,-1.76045 19.40057,-3.61196 22.0927,-4.11448 9.87845,-1.84391 12.46951,-2.28993 12.59193,-2.16751 0.0688,0.0688 -3.10377,7.49324 -7.05018,16.49872 -3.94641,9.00548 -8.60617,19.647823 -10.35504,23.649643 -1.74886,4.00182 -3.39402,7.75229 -3.65591,8.33437 -0.26189,0.58209 -1.02768,2.30396 -1.70175,3.82638 -1.21842,2.75186 -1.73083,3.55164 -2.55969,3.99523 -0.23839,0.12758 -2.20425,0.41017 -4.36858,0.62798 -2.16433,0.2178 -7.98328,0.81379 -12.93098,1.32442 -4.94771,0.51063 -12.56771,1.28964 -16.93334,1.73114 -4.36562,0.4415 -10.19969,1.03681 -12.96458,1.32292 -2.7649,0.2861 -7.40833,0.76312 -10.31875,1.06004 -2.91042,0.29693 -8.11587,0.83568 -11.5676701,1.19723 -7.3663,0.77157 -8.0988,0.79174 -8.88017996,0.24444 z"
         id="path11" /></g></g></svg>
